<svg xmlns="http://www.w3.org/2000/svg" width="1100" height="680" viewBox="-31.00 -16.65 55.00 34.00" preserveAspectRatio="xMidYMid meet"><rect x="-31.0" y="-16.65" width="55.0" height="34.0" fill="#1a1f1a"/><defs><pattern id="g" patternUnits="userSpaceOnUse" width="5" height="5"><path d="M 5 0 L 0 0 0 5" fill="none" stroke="#2a3a2a" stroke-width="0.1"/></pattern><clipPath id="clip"><rect x="-31.0" y="-16.65" width="55.0" height="34.0"/></clipPath></defs><rect x="-31.0" y="-16.65" width="55.0" height="34.0" fill="url(#g)" opacity="0.5"/><path d="M -25.0 -6.0 L -18.0 -4.5 L -12.0 -2.8 L -6.0 -1.2 L 0.0 0.0 L 5.0 1.2 L 10.0 3.0 L 15.0 5.2 L 20.0 7.8 L 25.0 10.8" fill="none" stroke="#4B5563" stroke-width="6.1" stroke-linecap="round" stroke-linejoin="round"/><path d="M -25.0 -6.0 L -18.0 -4.5 L -12.0 -2.8 L -6.0 -1.2 L 0.0 0.0 L 5.0 1.2 L 10.0 3.0 L 15.0 5.2 L 20.0 7.8 L 25.0 10.8" fill="none" stroke="#2a2f2a" stroke-width="3.1" stroke-linecap="round" stroke-linejoin="round"/><g clip-path="url(#clip)"><polygon points="-15.0,-8.0 -2.0,-5.0 -4.0,-2.0 -17.0,-5.0" fill="#3f3f46" stroke="#1f1f22" stroke-width="0.12" opacity="0.55"/><g transform="translate(-15.0,-9.1)"><rect x="-8.360000000000001" y="-0.76" width="16.720000000000002" height="1.1199999999999999" rx="0.18" fill="#0d110d" opacity="0.85" stroke="#1f1f22" stroke-width="0.06"/><text x="0" y="0.2" font-size="0.8" fill="#cbd5e1" text-anchor="middle" font-family="monospace">Edificación en margen interior de la c</text></g><polygon points="10.0,8.0 25.0,13.0 27.0,11.0 12.0,6.0" fill="#5c4a32" stroke="#5c4a32" stroke-width="0.12" opacity="0.65"/><g transform="translate(10.0,6.9)"><rect x="-7.480000000000001" y="-0.76" width="14.960000000000003" height="1.1199999999999999" rx="0.18" fill="#0d110d" opacity="0.85" stroke="#5c4a32" stroke-width="0.06"/><text x="0" y="0.2" font-size="0.8" fill="#cbd5e1" text-anchor="middle" font-family="monospace">Talud y borde exterior de la curva</text></g></g><path d="M -25.0 -6.5 L -21.5 -5.7 L -18.0 -4.9 L -14.5 -3.9 L -11.0 -2.8 L -7.5 -1.7 L -4.0 -0.6 L -1.0 0.3 L 0.5 0.8 L 2.5 1.5 L 5.5 2.7" fill="none" stroke="#E5E7EB" stroke-width="0.22" stroke-dasharray="0.8,0.4" opacity="0.55"/><path d="M 18.0 7.2 L 16.0 6.0 L 14.0 4.9 L 11.8 3.8 L 9.5 2.8 L 7.0 1.9 L 4.5 1.2 L 1.5 0.6 L 0.8 0.5 L 3.5 2.5" fill="none" stroke="#DC2626" stroke-width="0.22" stroke-dasharray="0.8,0.4" opacity="0.55"/><line x1="8.5" y1="2.5" x2="1.5" y2="0.6" stroke="#1a1a1a" stroke-width="0.4" opacity="0.85"/><g transform="translate(1.2,0.7)"><circle r="2.5" fill="none" stroke="#EF4444" stroke-width="0.2" opacity="0.6"/><circle r="0.7" fill="#EF4444"/><circle r="0.35" fill="#FFFFFF"/></g><g transform="translate(5.500,2.700) rotate(30.00)"><ellipse cx="0.2" cy="0.2" rx="2.23" ry="1.04" fill="#000" opacity="0.4"/><rect x="-2.03" y="-0.89" width="4.06" height="1.78" rx="0.4" fill="#E5E7EB" stroke="#EF4444" stroke-width="0.3"/><rect x="0.4059999999999999" y="-0.71" width="0.7307999999999999" height="1.42" fill="#0F172A" opacity="0.7"/><circle cx="0" cy="0" r="0.6" fill="#0F172A" stroke="#fff" stroke-width="0.06"/><text x="0" y="0.3" font-size="0.85" fill="#fff" text-anchor="middle" font-family="monospace">T</text></g><g transform="translate(4.125,2.925) rotate(60.00)"><ellipse cx="0.1" cy="0.1" rx="0.975" ry="0.325" fill="#000" opacity="0.35"/><line x1="-0.875" y1="0" x2="0.875" y2="0" stroke="#DC2626" stroke-width="0.2"/><circle cx="-0.725" cy="0" r="0.3" fill="none" stroke="#222" stroke-width="0.08"/><circle cx="0.725" cy="0" r="0.3" fill="none" stroke="#222" stroke-width="0.08"/><circle cx="0" cy="0" r="0.32" fill="#DC2626" stroke="#0F172A" stroke-width="0.08"/><text x="0" y="-0.6" font-size="0.7" fill="#DC2626" text-anchor="middle" font-family="monospace" font-weight="bold">cicl</text></g><g transform="translate(5.500,1.000)"><rect x="-1.9949999999999997" y="-0.9025" width="3.9899999999999993" height="1.3775" rx="0.22" fill="#0d110d" opacity="0.9" stroke="#E5E7EB" stroke-width="0.07"/><text x="0" y="0.304" font-size="0.95" fill="#E5E7EB" text-anchor="middle" font-family="monospace" font-weight="bold">30 km/h</text></g><g transform="translate(4.125,1.225)"><rect x="-1.9949999999999997" y="-0.9025" width="3.9899999999999993" height="1.3775" rx="0.22" fill="#0d110d" opacity="0.9" stroke="#DC2626" stroke-width="0.07"/><text x="0" y="0.304" font-size="0.95" fill="#DC2626" text-anchor="middle" font-family="monospace" font-weight="bold">28 km/h</text></g><g transform="translate(-30.0,16.85)"><rect x="0" y="-2.4" width="53.0" height="2.6" fill="#0d110d" opacity="0.92" stroke="#C2E94B" stroke-width="0.08"/><text x="0.4" y="-1.2" font-size="0.85" fill="#C2E94B" font-family="monospace" font-weight="bold">t = 2.40 s</text><text x="0.4" y="-0.2" font-size="0.75" fill="#cbd5e1" font-family="monospace">Fase post-impacto: el ciclista es proyectado sobre el capó y parabrisas y desplazado en la dirección del turismo, mientras éste inicia ahora sí una desaceleraci</text></g></svg>