<svg xmlns="http://www.w3.org/2000/svg" width="900" height="650" 
viewBox="0 0 900 650" font-family="Arial, sans-serif">
<rect width="900" height="650" fill="#FFFFFF"/>

    <rect x="0" y="0" width="900" height="50" fill="#1F2937"/>
    <text x="20" y="32" fill="#FFFFFF" font-size="16" font-weight="bold">
        Diagrama WAD - Impacto Frontal - Zonas de Contacto Cabeza
    </text>
    

        <g transform="translate(380, 340)" id="vehiculo-3d">
            <!-- Contorno del techo -->
            <path d="M -120,-100
                     C -100,-110 -40,-115 20,-110
                     L 100,-90
                     L 130,-60"
                  fill="none" stroke="#374151" stroke-width="1.5"/>

            <!-- Pilar A izquierdo (windshield frame) -->
            <path d="M -120,-100 L -140,-30"
                  fill="none" stroke="#374151" stroke-width="2"/>

            <!-- Linea del techo derecha -->
            <path d="M 130,-60 L 150,-20"
                  fill="none" stroke="#374151" stroke-width="1.5"/>

            <!-- Parabrisas (windshield) -->
            <path d="M -140,-30
                     C -120,-50 -60,-70 20,-65
                     L 100,-50
                     L 130,-20"
                  fill="none" stroke="#374151" stroke-width="1.5"/>

            <!-- Marco inferior del parabrisas / inicio del capo -->
            <path d="M -140,-30
                     L -100,0
                     L 100,20
                     L 150,-20"
                  fill="none" stroke="#374151" stroke-width="1.5"/>

            <!-- Capo (hood) - superficie superior -->
            <path d="M -100,0
                     L -40,20
                     L 100,40
                     L 160,30"
                  fill="none" stroke="#374151" stroke-width="1.2"/>

            <!-- Linea central del capo -->
            <path d="M 0,10 L 130,35"
                  fill="none" stroke="#374151" stroke-width="0.8" stroke-dasharray="4,2"/>

            <!-- Frontal del coche (grille area) -->
            <path d="M 160,30
                     L 175,50
                     L 175,100
                     L 150,115"
                  fill="none" stroke="#374151" stroke-width="2"/>

            <!-- Parrilla frontal -->
            <path d="M 120,50 L 165,60"
                  fill="none" stroke="#374151" stroke-width="1.5"/>
            <path d="M 125,70 L 170,78"
                  fill="none" stroke="#374151" stroke-width="1"/>
            <path d="M 130,88 L 172,94"
                  fill="none" stroke="#374151" stroke-width="1"/>

            <!-- Faro delantero derecho -->
            <ellipse cx="140" cy="65" rx="22" ry="12"
                     fill="none" stroke="#374151" stroke-width="1.5"/>

            <!-- Lateral izquierdo (visible) -->
            <path d="M -140,-30
                     L -160,0
                     L -170,60
                     L -170,115"
                  fill="none" stroke="#374151" stroke-width="2"/>

            <!-- Ventana lateral izquierda -->
            <path d="M -130,-85
                     L -100,-60
                     L -50,-50
                     L 10,-45
                     L 50,-50
                     L 40,-20
                     L -80,-10
                     L -145,-20 Z"
                  fill="none" stroke="#374151" stroke-width="1.2"/>

            <!-- Pilar B -->
            <path d="M -50,-50 L -40,0"
                  fill="none" stroke="#374151" stroke-width="2"/>

            <!-- Espejo retrovisor izquierdo -->
            <ellipse cx="-155" cy="-5" rx="15" ry="8"
                     fill="none" stroke="#374151" stroke-width="1.5"/>
            <path d="M -155,-5 L -145,0"
                  fill="none" stroke="#374151" stroke-width="1"/>

            <!-- Linea de cintura (beltline) -->
            <path d="M -170,60
                     L -80,65
                     L 100,80
                     L 175,100"
                  fill="none" stroke="#374151" stroke-width="1.2"/>

            <!-- Paso de rueda trasero (izquierdo) -->
            <path d="M -170,115
                     C -170,85 -140,65 -105,65
                     C -70,65 -40,85 -40,115"
                  fill="none" stroke="#374151" stroke-width="2"/>

            <!-- Linea inferior trasera -->
            <path d="M -170,115 L -180,115"
                  fill="none" stroke="#374151" stroke-width="2"/>

            <!-- Parte inferior entre ruedas -->
            <path d="M -40,115 L 70,115"
                  fill="none" stroke="#374151" stroke-width="2"/>

            <!-- Paso de rueda delantero (frontal-derecho) -->
            <path d="M 70,115
                     C 70,90 95,75 125,78
                     L 150,115"
                  fill="none" stroke="#374151" stroke-width="2"/>

            <!-- Rueda trasera (izquierda, visible) -->
            <ellipse cx="-105" cy="100" rx="40" ry="20"
                     fill="none" stroke="#374151" stroke-width="2"/>
            <ellipse cx="-105" cy="100" rx="25" ry="12"
                     fill="none" stroke="#374151" stroke-width="1"/>
            <ellipse cx="-105" cy="100" rx="8" ry="4"
                     fill="none" stroke="#374151" stroke-width="1"/>

            <!-- Rueda delantera (derecha, parcialmente visible) -->
            <ellipse cx="110" cy="102" rx="35" ry="17"
                     fill="none" stroke="#374151" stroke-width="2"/>
            <ellipse cx="110" cy="102" rx="22" ry="11"
                     fill="none" stroke="#374151" stroke-width="1"/>
            <ellipse cx="110" cy="102" rx="7" ry="4"
                     fill="none" stroke="#374151" stroke-width="1"/>
        </g>
        

        <line x1="50" y1="210.0" x2="580" y2="210.0"
              stroke="#EAB308" stroke-width="2" opacity="0.9"/>
        <text x="590" y="214.0" fill="#374151" font-size="11" font-weight="bold">
            WAD 1000
        </text>
        <text x="35" y="214.0" fill="#6B7280" font-size="10" text-anchor="end">
            1.0m
        </text>
        

        <line x1="50" y1="170.0" x2="580" y2="170.0"
              stroke="#EAB308" stroke-width="2" opacity="0.9"/>
        <text x="590" y="174.0" fill="#374151" font-size="11" font-weight="bold">
            WAD 1500
        </text>
        <text x="35" y="174.0" fill="#6B7280" font-size="10" text-anchor="end">
            1.5m
        </text>
        
<g id="marcadores-impacto">

        <g class="marcador-peaton-20">
            <polygon points="440,405 432,420 448,420"
                     fill="#F97316" stroke="#000000" stroke-width="1"/>
            <text x="455" y="415"
                  fill="#F97316" font-size="11" font-weight="bold">
                20 km/h
            </text>
        </g>
        

            <g class="marcador-ciclista-20">
                <line x1="404" y1="390" x2="416" y2="390"
                      stroke="#000000" stroke-width="2.5"/>
                <line x1="410" y1="384" x2="410" y2="396"
                      stroke="#000000" stroke-width="2.5"/>
                <text x="395" y="382" text-anchor="end"
                      fill="#000000" font-size="10" font-weight="bold">
                    20 km/h
                </text>
            </g>
            

        <g class="marcador-peaton-30">
            <polygon points="410,385 402,400 418,400"
                     fill="#F97316" stroke="#000000" stroke-width="1"/>
            <text x="425" y="395"
                  fill="#F97316" font-size="11" font-weight="bold">
                30 km/h
            </text>
        </g>
        

            <g class="marcador-ciclista-30">
                <line x1="374" y1="370" x2="386" y2="370"
                      stroke="#000000" stroke-width="2.5"/>
                <line x1="380" y1="364" x2="380" y2="376"
                      stroke="#000000" stroke-width="2.5"/>
                <text x="365" y="362" text-anchor="end"
                      fill="#000000" font-size="10" font-weight="bold">
                    30 km/h
                </text>
            </g>
            

        <g class="marcador-peaton-40">
            <polygon points="360,350 352,365 368,365"
                     fill="#F97316" stroke="#000000" stroke-width="1"/>
            <text x="375" y="360"
                  fill="#F97316" font-size="11" font-weight="bold">
                40 km/h
            </text>
        </g>
        

            <g class="marcador-ciclista-40">
                <line x1="324" y1="335" x2="336" y2="335"
                      stroke="#000000" stroke-width="2.5"/>
                <line x1="330" y1="329" x2="330" y2="341"
                      stroke="#000000" stroke-width="2.5"/>
                <text x="315" y="327" text-anchor="end"
                      fill="#000000" font-size="10" font-weight="bold">
                    40 km/h
                </text>
            </g>
            

        <g class="marcador-peaton-50">
            <polygon points="320,300 312,315 328,315"
                     fill="#F97316" stroke="#000000" stroke-width="1"/>
            <text x="335" y="310"
                  fill="#F97316" font-size="11" font-weight="bold">
                50 km/h
            </text>
        </g>
        

            <g class="marcador-ciclista-50">
                <line x1="284" y1="285" x2="296" y2="285"
                      stroke="#000000" stroke-width="2.5"/>
                <line x1="290" y1="279" x2="290" y2="291"
                      stroke="#000000" stroke-width="2.5"/>
                <text x="275" y="277" text-anchor="end"
                      fill="#000000" font-size="10" font-weight="bold">
                    50 km/h
                </text>
            </g>
            
</g>

        <g class="velocidad-destacada">
            <circle cx="320" cy="310" r="25" fill="none"
                    stroke="#DC2626" stroke-width="3">
                <animate attributeName="r" values="20;28;20" dur="1.5s" repeatCount="indefinite"/>
                <animate attributeName="opacity" values="1;0.6;1" dur="1.5s" repeatCount="indefinite"/>
            </circle>
        </g>
        

    <rect x="650" y="70" width="230" height="280"
          fill="white" stroke="#E5E7EB" stroke-width="1" rx="6"/>

    <text x="665" y="92" fill="#111827" font-size="13" font-weight="bold">
        Leyenda - Zonas de Impacto
    </text>
    <line x1="660" y1="102" x2="870" y2="102"
          stroke="#E5E7EB"/>

    <!-- Simbolo peaton - triangulo naranja -->
    <polygon points="675,118 667,132 683,132"
             fill="#F97316" stroke="#000000" stroke-width="1"/>
    <text x="695" y="128" fill="#374151" font-size="11">
        Impacto frontal peaton
    </text>

    <!-- Simbolo ciclista - cruz negra -->
    <line x1="669" y1="152" x2="681" y2="152"
          stroke="#000000" stroke-width="2.5"/>
    <line x1="675" y1="146" x2="675" y2="158"
          stroke="#000000" stroke-width="2.5"/>
    <text x="695" y="156" fill="#374151" font-size="11">
        Impacto frontal ciclista
    </text>

    <line x1="660" y1="170" x2="870" y2="170"
          stroke="#E5E7EB"/>

    <text x="665" y="188" fill="#111827" font-size="11" font-weight="bold">
        Velocidad y zona de contacto:
    </text>
    

        <text x="670" y="205" fill="#F97316" font-size="11" font-weight="bold">
            20 km/h
        </text>
        <text x="725" y="205" fill="#374151" font-size="10">
            → Capo trasero
        </text>
        

        <text x="670" y="233" fill="#F97316" font-size="11" font-weight="bold">
            30 km/h
        </text>
        <text x="725" y="233" fill="#374151" font-size="10">
            → Capo central
        </text>
        

        <text x="670" y="261" fill="#F97316" font-size="11" font-weight="bold">
            40 km/h
        </text>
        <text x="725" y="261" fill="#374151" font-size="10">
            → Parabrisas
        </text>
        

        <text x="670" y="289" fill="#F97316" font-size="11" font-weight="bold">
            50 km/h
        </text>
        <text x="725" y="289" fill="#374151" font-size="10">
            → Techo/Pilar A
        </text>
        

    <line x1="660" y1="325" x2="870" y2="325"
          stroke="#E5E7EB"/>
    <text x="665" y="340" fill="#6B7280" font-size="8" font-style="italic">
        Basado en estudios ITRASA/Euro NCAP
    </text>
    

    <rect x="25" y="545" width="600" height="90" fill="#F9FAFB"
          stroke="#E5E7EB" stroke-width="1" rx="6"/>

    <text x="40" y="568" fill="#111827" font-size="12" font-weight="bold">
        Interpretacion - Impacto Frontal
    </text>

    <text x="40" y="588" fill="#374151" font-size="10">
        • 15-25 km/h: Impacto en capo → Lesiones moderadas (AIS 1-2)
    </text>
    <text x="40" y="605" fill="#374151" font-size="10">
        • 30-40 km/h: Impacto en parabrisas → Lesiones graves, TCE (AIS 3-4)
    </text>
    <text x="330" y="588" fill="#374151" font-size="10">
        • 45-55 km/h: Impacto en techo/pilar → Lesiones criticas (AIS 5+)
    </text>
    <text x="330" y="605" fill="#374151" font-size="10">
        • &gt;55 km/h: Proyeccion completa → Riesgo vital muy alto
    </text>
    

    <text x="880" y="642" text-anchor="end" fill="#9CA3AF" font-size="9">
        Veridict AI - Reconstruccion Forense
    </text>
    
</svg>